<svg xmlns="http://www.w3.org/2000/svg" viewBox="0 0 1448.93 222.17"><defs><style>.cls-1{fill:#8fd2ea;}.cls-2{fill:#fff;}</style></defs><title>Asset 6</title><g id="Layer_2" data-name="Layer 2"><g id="Layer_1-2" data-name="Layer 1"><path class="cls-1" d="M1448.93,27.89V199.1a111.94,111.94,0,0,1-41.64,23.07H1076.1a64.19,64.19,0,0,1-4.45-12.13,42.62,42.62,0,0,1-10.3,1.31,40.74,40.74,0,0,1-10.3-1.35,65.07,65.07,0,0,1-3,12.17H843.79a64.23,64.23,0,0,1-.9-10.82,67.29,67.29,0,0,1,.56-8.35,43.18,43.18,0,0,1-6.59.56,42.19,42.19,0,0,1-11.61-1.65,41.91,41.91,0,0,1-16.17,20.26H762.8a41.83,41.83,0,0,1-16.7-21.83,41.89,41.89,0,0,1-70.16-2.92,65.76,65.76,0,0,1-73.64-4.23,66.2,66.2,0,0,1-9.7,29H480.32a68.73,68.73,0,0,1-4.08-7.56,64.89,64.89,0,0,1-13,7.56H410.15a64.31,64.31,0,0,1-10.44-5.77c-1.46,2-3,3.9-4.57,5.77H158.78A65.63,65.63,0,0,1,157,206.71c0-1.13.11-2.25.19-3.38A100.34,100.34,0,1,1,62.75,26.73,100.29,100.29,0,0,1,200.94,144.41a65.45,65.45,0,0,1,18.65-3.71,100.34,100.34,0,0,1,184-36.35c1.09-.64,2.21-1.24,3.33-1.84a66.21,66.21,0,0,1,90,31.64,65.61,65.61,0,0,1,35.23-13,41.92,41.92,0,0,1,60.21-24.07,66.11,66.11,0,0,1,111,17.89,42,42,0,0,1,37.48-23.1,39.82,39.82,0,0,1,5.13.34,42.05,42.05,0,0,1,35.83,32.31,43,43,0,0,1,1,9.36,42.1,42.1,0,0,1-1.64,11.53,41.48,41.48,0,0,1,4.75-.3,40.74,40.74,0,0,1,11.61,1.69,42,42,0,0,1,80.38,6.1,66,66,0,0,1,61.66-.3,62.22,62.22,0,0,1,7-5.91,65.57,65.57,0,0,1,39-12.81,64.66,64.66,0,0,1,27.82,6.22,65.46,65.46,0,0,1,12.09,7.3,41.93,41.93,0,0,1,30.78-19.81h.11a43.61,43.61,0,0,1,4.87-.3,41.89,41.89,0,0,1,24.22,7.68,42.68,42.68,0,0,1,8,7.41,66,66,0,0,1,90.87,6.52,99.89,99.89,0,0,1,27.07-22.36,98.35,98.35,0,0,1,42.87-12.84c2.17-.15,4.38-.22,6.59-.22a113.45,113.45,0,0,1,188-85.63Z"/><path class="cls-2" d="M1448.93,49.12v173H0V30.22a121.8,121.8,0,0,1,37.89-6,122.84,122.84,0,0,1,123,123,108.48,108.48,0,0,1,82.89,38.37,71.62,71.62,0,0,1,98.43-7,45.48,45.48,0,0,1,73.68,5.39,80.8,80.8,0,0,1,6.93-4.68,72.22,72.22,0,0,1,24.6-9,75.73,75.73,0,0,1,11.75-.94,71.37,71.37,0,0,1,49.91,20.29,71.65,71.65,0,0,1,66.83.3A45.48,45.48,0,0,1,663,183.31a44.64,44.64,0,0,1,12.58-1.8,45.86,45.86,0,0,1,5.16.3,45.47,45.47,0,0,1,84.32-32.95,71.67,71.67,0,0,1,120.26-19.43,45.51,45.51,0,0,1,61.32,17.3,44.15,44.15,0,0,1,3.9,8.8,71.17,71.17,0,0,1,38.19,14,71.94,71.94,0,0,1,24.78-29.43,70.87,70.87,0,0,1,40.44-12.54c.82,0,1.61,0,2.43,0h.11a71.17,71.17,0,0,1,29.09,7.38c1.46.71,2.89,1.46,4.27,2.28a109.09,109.09,0,0,1,37-36,108.5,108.5,0,0,1,127.6,12.5c1.27,1.09,2.55,2.29,3.78,3.52a108.08,108.08,0,0,1,31.08,59.42,70.57,70.57,0,0,1,20.18,4,108.75,108.75,0,0,1,105-137.17A107.61,107.61,0,0,1,1448.93,49.12Z"/></g></g></svg>