<svg xmlns="http://www.w3.org/2000/svg" viewBox="0 0 650.71 478.5"><defs><style>.cls-1{fill:#fff;}</style></defs><title>Asset 8</title><g id="Layer_2" data-name="Layer 2"><g id="Layer_1-2" data-name="Layer 1"><path class="cls-1" d="M157.12,323.92a20.32,20.32,0,0,0-25.31-15.36,29.72,29.72,0,0,0-25.68-18.49,33.6,33.6,0,0,0-60.26,2,23.52,23.52,0,0,0-5.91-.76,23.12,23.12,0,0,0-23.08,21.81A21.31,21.31,0,0,0,0,323.92Z"/><path class="cls-1" d="M463.07,44.48a17.49,17.49,0,0,0-21.8-13.23,25.58,25.58,0,0,0-22.11-15.93,28.94,28.94,0,0,0-51.9,1.7,19.92,19.92,0,0,0-25,18.13,18.33,18.33,0,0,0-14.53,9.33Z"/><path class="cls-1" d="M650.71,404.12a14.07,14.07,0,0,0-8.47-11.1,13.24,13.24,0,0,0-19.62-6.84,20.84,20.84,0,0,0-12.39-4.77,23.87,23.87,0,0,0-44.82.37,17.16,17.16,0,0,0-2.16-.13,18.46,18.46,0,0,0-15.34,8.17l-.64,0a14.89,14.89,0,0,0-14.88,14.32Z"/><path class="cls-1" d="M284.23,478.5a14.32,14.32,0,0,0-17.87-10.84,21,21,0,0,0-18.12-13.06A23.73,23.73,0,0,0,205.68,456a16.36,16.36,0,0,0-20.46,14.86,15.05,15.05,0,0,0-11.92,7.65Z"/></g></g></svg>