<svg xmlns="http://www.w3.org/2000/svg" viewBox="0 0 508.23 126.15"><defs><style>.cls-1{isolation:isolate;}.cls-2{fill:#ecf0f1;}.cls-3,.cls-5{fill:#718f96;}.cls-4{fill:#282f39;}.cls-5{opacity:0.5;mix-blend-mode:multiply;}</style></defs><title>Asset 7</title><g class="cls-1"><g id="Layer_2" data-name="Layer 2"><g id="Layer_1-2" data-name="Layer 1"><path class="cls-2" d="M508.08,59.32c-.4,2.67-2.87,5.52-6.58,8.36-12.71,9.73-40,19.43-48.35,22.21-10.78,3.58-168,23.37-168,23.37-45.83,20.1-76.9,7-76.9,7s-22.91,5.56-82,5.86-94-30.3-94-30.3L21.53,97.72a4.31,4.31,0,0,1-1.13,0A4.44,4.44,0,0,1,20,89l13-2.43L0,4.13,31.21,0c39.37,48.18,74.71,63.85,88.58,68S382.7,37.61,432.73,29.82c25.42-3.94,41.46.19,51.1,5.23,9.35,4.88,12.67,10.58,12.67,10.58S509.82,47.49,508.08,59.32Z"/><path class="cls-3" d="M501.5,67.67h0c-12.71,9.73-40,19.43-48.35,22.21-10.78,3.58-168,23.37-168,23.37-45.83,20.1-76.9,7-76.9,7s-22.91,5.56-82,5.86-94-30.3-94-30.3l78.26-8-8.83,25.08,60.18,5,18.86-37.71,2.78,11.46L309.19,73l-10.55,27.74S451.09,92.93,501.5,67.67Z"/><path class="cls-4" d="M468.73,41.37a41.17,41.17,0,0,1-14.06.78s2.18,9.71,6.51,11.57c2.37,1,10.7,1.07,15.88-2C473.78,48.87,471.5,45.07,468.73,41.37Z"/><path class="cls-4" d="M483.83,35.05a50.9,50.9,0,0,1-10.73,5.09c2.68,4.07,6.95,7.11,10.8,10.22a52.91,52.91,0,0,0,12.6-4.73S493.18,39.93,483.83,35.05Z"/><polygon class="cls-5" points="278.14 81.91 282.54 109.78 287.47 104.57 284.34 84.95 278.14 81.91"/><polygon class="cls-5" points="208.68 91.02 212 119.03 205.85 115.36 203.54 95.62 208.68 91.02"/><path class="cls-4" d="M155.58,79.46a3.76,3.76,0,1,1-3.43-4.06A3.76,3.76,0,0,1,155.58,79.46Z"/><path class="cls-4" d="M168.43,78.63A3.76,3.76,0,1,1,165,74.57,3.75,3.75,0,0,1,168.43,78.63Z"/><path class="cls-4" d="M244.37,72.21a5.17,5.17,0,1,1-4.72-5.58A5.15,5.15,0,0,1,244.37,72.21Z"/><path class="cls-4" d="M262.28,70.23a5.17,5.17,0,1,1-4.72-5.58A5.17,5.17,0,0,1,262.28,70.23Z"/><path class="cls-4" d="M280.79,67a5.17,5.17,0,1,1-4.72-5.58A5.17,5.17,0,0,1,280.79,67Z"/><path class="cls-4" d="M300.07,64.56A5.17,5.17,0,1,1,295.35,59,5.17,5.17,0,0,1,300.07,64.56Z"/><path class="cls-4" d="M338.33,66.63a5.17,5.17,0,1,1-4.72-5.58A5.17,5.17,0,0,1,338.33,66.63Z"/><path class="cls-4" d="M356.5,64.09a5.17,5.17,0,1,1-4.72-5.59A5.17,5.17,0,0,1,356.5,64.09Z"/><path class="cls-4" d="M374.67,61.54A5.17,5.17,0,1,1,370,56,5.17,5.17,0,0,1,374.67,61.54Z"/><path class="cls-4" d="M392.84,59a5.17,5.17,0,1,1-4.72-5.58A5.17,5.17,0,0,1,392.84,59Z"/><path class="cls-4" d="M411,56.45a5.17,5.17,0,1,1-4.72-5.59A5.17,5.17,0,0,1,411,56.45Z"/></g></g></g></svg>